<mxfile host="app.diagrams.net" agent="Mozilla/5.0 (Windows NT 10.0; Win64; x64) AppleWebKit/537.36 (KHTML, like Gecko) Chrome/129.0.0.0 Safari/537.36 Edg/129.0.0.0" version="24.7.16">
  <diagram name="Page-1" id="6133507b-19e7-1e82-6fc7-422aa6c4b21f">
    <mxGraphModel dx="984" dy="528" grid="1" gridSize="10" guides="1" tooltips="1" connect="1" arrows="1" fold="1" page="1" pageScale="1" pageWidth="1100" pageHeight="850" background="none" math="0" shadow="0">
      <root>
        <mxCell id="0" />
        <mxCell id="1" parent="0" />
        <mxCell id="8RKPcWR6JXZ6SVr-2ro6-47" value="" style="group;labelBackgroundColor=none;fontColor=#46495D;" parent="1" vertex="1" connectable="0">
          <mxGeometry x="810" y="48" width="190" height="227" as="geometry" />
        </mxCell>
        <mxCell id="8RKPcWR6JXZ6SVr-2ro6-45" value="" style="group;labelBackgroundColor=none;fontColor=#46495D;" parent="8RKPcWR6JXZ6SVr-2ro6-47" vertex="1" connectable="0">
          <mxGeometry y="37" width="190" height="190" as="geometry" />
        </mxCell>
        <mxCell id="8RKPcWR6JXZ6SVr-2ro6-37" value="" style="ellipse;whiteSpace=wrap;html=1;aspect=fixed;labelBackgroundColor=none;fillColor=#B2C9AB;strokeColor=#788AA3;fontColor=#46495D;" parent="8RKPcWR6JXZ6SVr-2ro6-45" vertex="1">
          <mxGeometry width="190" height="190" as="geometry" />
        </mxCell>
        <mxCell id="8RKPcWR6JXZ6SVr-2ro6-38" value="Node 1" style="ellipse;whiteSpace=wrap;html=1;aspect=fixed;labelBackgroundColor=none;fillColor=#dae8fc;strokeColor=#6c8ebf;" parent="8RKPcWR6JXZ6SVr-2ro6-45" vertex="1">
          <mxGeometry x="30" y="15" width="60" height="60" as="geometry" />
        </mxCell>
        <mxCell id="8RKPcWR6JXZ6SVr-2ro6-39" value="Node 2" style="ellipse;whiteSpace=wrap;html=1;aspect=fixed;labelBackgroundColor=none;fillColor=#dae8fc;strokeColor=#6c8ebf;" parent="8RKPcWR6JXZ6SVr-2ro6-45" vertex="1">
          <mxGeometry x="120" y="35" width="60" height="60" as="geometry" />
        </mxCell>
        <mxCell id="8RKPcWR6JXZ6SVr-2ro6-40" value="Node 3" style="ellipse;whiteSpace=wrap;html=1;aspect=fixed;labelBackgroundColor=none;fillColor=#dae8fc;strokeColor=#6c8ebf;" parent="8RKPcWR6JXZ6SVr-2ro6-45" vertex="1">
          <mxGeometry x="55" y="125" width="60" height="60" as="geometry" />
        </mxCell>
        <mxCell id="8RKPcWR6JXZ6SVr-2ro6-46" value="Nodes to process notifications" style="text;html=1;align=center;verticalAlign=middle;resizable=0;points=[];autosize=1;strokeColor=none;fillColor=none;labelBackgroundColor=none;fontColor=#46495D;" parent="8RKPcWR6JXZ6SVr-2ro6-47" vertex="1">
          <mxGeometry x="5" width="180" height="30" as="geometry" />
        </mxCell>
        <mxCell id="8RKPcWR6JXZ6SVr-2ro6-53" value="" style="group;labelBackgroundColor=none;fontColor=#46495D;" parent="1" vertex="1" connectable="0">
          <mxGeometry x="480" y="120" width="310" height="90" as="geometry" />
        </mxCell>
        <mxCell id="8RKPcWR6JXZ6SVr-2ro6-51" value="" style="group;labelBackgroundColor=none;fontColor=#46495D;" parent="8RKPcWR6JXZ6SVr-2ro6-53" vertex="1" connectable="0">
          <mxGeometry y="30" width="310" height="60" as="geometry" />
        </mxCell>
        <mxCell id="8RKPcWR6JXZ6SVr-2ro6-36" value="Queue to notify user" style="shape=process;whiteSpace=wrap;html=1;backgroundOutline=1;labelBackgroundColor=none;fillColor=#e3c800;strokeColor=#B09500;fontColor=#000000;" parent="8RKPcWR6JXZ6SVr-2ro6-51" vertex="1">
          <mxGeometry x="160" width="150" height="60" as="geometry" />
        </mxCell>
        <mxCell id="8RKPcWR6JXZ6SVr-2ro6-52" value="Message queue system" style="text;html=1;align=center;verticalAlign=middle;resizable=0;points=[];autosize=1;strokeColor=none;fillColor=none;labelBackgroundColor=none;fontColor=#46495D;" parent="8RKPcWR6JXZ6SVr-2ro6-53" vertex="1">
          <mxGeometry x="160" width="150" height="30" as="geometry" />
        </mxCell>
        <mxCell id="8RKPcWR6JXZ6SVr-2ro6-56" value="" style="edgeStyle=orthogonalEdgeStyle;rounded=0;orthogonalLoop=1;jettySize=auto;html=1;entryX=1;entryY=0.5;entryDx=0;entryDy=0;labelBackgroundColor=none;strokeColor=#121212;fontColor=default;endArrow=none;endFill=0;startArrow=block;startFill=1;" parent="1" source="8RKPcWR6JXZ6SVr-2ro6-37" target="8RKPcWR6JXZ6SVr-2ro6-36" edge="1">
          <mxGeometry relative="1" as="geometry" />
        </mxCell>
        <mxCell id="n29ahL4NUWtV4H1Kzx2c-1" value="" style="group" vertex="1" connectable="0" parent="1">
          <mxGeometry x="800" y="352" width="200" height="208" as="geometry" />
        </mxCell>
        <mxCell id="8RKPcWR6JXZ6SVr-2ro6-17" value="POSTGRES" style="shape=cylinder3;whiteSpace=wrap;html=1;boundedLbl=1;backgroundOutline=1;size=12.920958201090514;labelBackgroundColor=none;fillColor=#E5A68C;strokeColor=#788AA3;fontColor=#46495D;" parent="n29ahL4NUWtV4H1Kzx2c-1" vertex="1">
          <mxGeometry x="35" y="38" width="130" height="170" as="geometry" />
        </mxCell>
        <mxCell id="8RKPcWR6JXZ6SVr-2ro6-18" value="Relational Data storage&lt;div style=&quot;font-size: 17px;&quot;&gt;&lt;br style=&quot;font-size: 17px;&quot;&gt;&lt;/div&gt;" style="text;html=1;align=center;verticalAlign=middle;resizable=0;points=[];autosize=1;strokeColor=none;fillColor=none;fontSize=17;labelBackgroundColor=none;fontColor=#46495D;" parent="n29ahL4NUWtV4H1Kzx2c-1" vertex="1">
          <mxGeometry width="200" height="50" as="geometry" />
        </mxCell>
        <mxCell id="n29ahL4NUWtV4H1Kzx2c-16" value="" style="edgeStyle=orthogonalEdgeStyle;rounded=0;orthogonalLoop=1;jettySize=auto;html=1;" edge="1" parent="1" source="n29ahL4NUWtV4H1Kzx2c-9" target="n29ahL4NUWtV4H1Kzx2c-7">
          <mxGeometry relative="1" as="geometry" />
        </mxCell>
        <mxCell id="n29ahL4NUWtV4H1Kzx2c-9" value="Payment UI" style="rounded=0;whiteSpace=wrap;html=1;fillColor=none;" vertex="1" parent="1">
          <mxGeometry x="50" y="490" width="120" height="60" as="geometry" />
        </mxCell>
        <mxCell id="n29ahL4NUWtV4H1Kzx2c-15" value="" style="edgeStyle=orthogonalEdgeStyle;rounded=0;orthogonalLoop=1;jettySize=auto;html=1;" edge="1" parent="1" source="n29ahL4NUWtV4H1Kzx2c-10" target="n29ahL4NUWtV4H1Kzx2c-3">
          <mxGeometry relative="1" as="geometry" />
        </mxCell>
        <mxCell id="n29ahL4NUWtV4H1Kzx2c-10" value="Order UI" style="rounded=0;whiteSpace=wrap;html=1;fillColor=none;" vertex="1" parent="1">
          <mxGeometry x="50" y="406" width="120" height="60" as="geometry" />
        </mxCell>
        <mxCell id="n29ahL4NUWtV4H1Kzx2c-14" value="" style="edgeStyle=orthogonalEdgeStyle;rounded=0;orthogonalLoop=1;jettySize=auto;html=1;" edge="1" parent="1" source="n29ahL4NUWtV4H1Kzx2c-11" target="n29ahL4NUWtV4H1Kzx2c-6">
          <mxGeometry relative="1" as="geometry">
            <Array as="points">
              <mxPoint x="200" y="320" />
              <mxPoint x="200" y="320" />
            </Array>
          </mxGeometry>
        </mxCell>
        <mxCell id="n29ahL4NUWtV4H1Kzx2c-11" value="Event UI" style="rounded=0;whiteSpace=wrap;html=1;fillColor=none;verticalAlign=top;" vertex="1" parent="1">
          <mxGeometry x="50" y="290" width="120" height="80" as="geometry" />
        </mxCell>
        <mxCell id="n29ahL4NUWtV4H1Kzx2c-13" value="" style="edgeStyle=orthogonalEdgeStyle;rounded=0;orthogonalLoop=1;jettySize=auto;html=1;" edge="1" parent="1" source="n29ahL4NUWtV4H1Kzx2c-12" target="n29ahL4NUWtV4H1Kzx2c-5">
          <mxGeometry relative="1" as="geometry" />
        </mxCell>
        <mxCell id="n29ahL4NUWtV4H1Kzx2c-12" value="Venue UI" style="rounded=0;whiteSpace=wrap;html=1;fillColor=none;" vertex="1" parent="1">
          <mxGeometry x="50" y="190" width="120" height="60" as="geometry" />
        </mxCell>
        <mxCell id="n29ahL4NUWtV4H1Kzx2c-18" value="" style="group" vertex="1" connectable="0" parent="1">
          <mxGeometry x="250" y="130" width="280" height="430" as="geometry" />
        </mxCell>
        <mxCell id="n29ahL4NUWtV4H1Kzx2c-17" value="" style="rounded=0;whiteSpace=wrap;html=1;fillColor=none;dashed=1;" vertex="1" parent="n29ahL4NUWtV4H1Kzx2c-18">
          <mxGeometry y="40" width="170" height="390" as="geometry" />
        </mxCell>
        <mxCell id="8RKPcWR6JXZ6SVr-2ro6-16" value="&lt;div style=&quot;font-size: 17px;&quot;&gt;Backend Nodes&lt;/div&gt;" style="text;html=1;align=center;verticalAlign=middle;resizable=0;points=[];autosize=1;strokeColor=none;fillColor=none;labelBackgroundColor=none;fontColor=#46495D;" parent="n29ahL4NUWtV4H1Kzx2c-18" vertex="1">
          <mxGeometry x="9.996896551724149" width="140" height="30" as="geometry" />
        </mxCell>
        <mxCell id="n29ahL4NUWtV4H1Kzx2c-3" value="Order API" style="rounded=0;whiteSpace=wrap;html=1;fillColor=none;" vertex="1" parent="n29ahL4NUWtV4H1Kzx2c-18">
          <mxGeometry x="20" y="276" width="120" height="60" as="geometry" />
        </mxCell>
        <mxCell id="n29ahL4NUWtV4H1Kzx2c-5" value="Venue API" style="rounded=0;whiteSpace=wrap;html=1;fillColor=none;" vertex="1" parent="n29ahL4NUWtV4H1Kzx2c-18">
          <mxGeometry x="20" y="60" width="120" height="60" as="geometry" />
        </mxCell>
        <mxCell id="n29ahL4NUWtV4H1Kzx2c-6" value="Event API" style="rounded=0;whiteSpace=wrap;html=1;fillColor=none;verticalAlign=middle;" vertex="1" parent="n29ahL4NUWtV4H1Kzx2c-18">
          <mxGeometry x="20" y="160" width="120" height="60" as="geometry" />
        </mxCell>
        <mxCell id="n29ahL4NUWtV4H1Kzx2c-7" value="Payment API" style="rounded=0;whiteSpace=wrap;html=1;fillColor=none;" vertex="1" parent="n29ahL4NUWtV4H1Kzx2c-18">
          <mxGeometry x="20" y="360" width="120" height="60" as="geometry" />
        </mxCell>
        <mxCell id="n29ahL4NUWtV4H1Kzx2c-22" value="cache control" style="rounded=0;whiteSpace=wrap;html=1;" vertex="1" parent="n29ahL4NUWtV4H1Kzx2c-18">
          <mxGeometry x="70" y="240" width="80" height="20" as="geometry" />
        </mxCell>
        <mxCell id="n29ahL4NUWtV4H1Kzx2c-24" value="" style="endArrow=none;html=1;rounded=0;exitX=0.5;exitY=0;exitDx=0;exitDy=0;entryX=0.384;entryY=1.031;entryDx=0;entryDy=0;entryPerimeter=0;startArrow=classic;startFill=1;" edge="1" parent="n29ahL4NUWtV4H1Kzx2c-18" source="n29ahL4NUWtV4H1Kzx2c-3" target="n29ahL4NUWtV4H1Kzx2c-22">
          <mxGeometry width="50" height="50" relative="1" as="geometry">
            <mxPoint x="60" y="280" as="sourcePoint" />
            <mxPoint x="110" y="230" as="targetPoint" />
          </mxGeometry>
        </mxCell>
        <mxCell id="n29ahL4NUWtV4H1Kzx2c-25" value="" style="endArrow=none;html=1;rounded=0;exitX=0.5;exitY=1;exitDx=0;exitDy=0;entryX=0.408;entryY=-0.011;entryDx=0;entryDy=0;entryPerimeter=0;startArrow=classic;startFill=1;" edge="1" parent="n29ahL4NUWtV4H1Kzx2c-18" source="n29ahL4NUWtV4H1Kzx2c-6" target="n29ahL4NUWtV4H1Kzx2c-22">
          <mxGeometry width="50" height="50" relative="1" as="geometry">
            <mxPoint x="60" y="280" as="sourcePoint" />
            <mxPoint x="110" y="230" as="targetPoint" />
          </mxGeometry>
        </mxCell>
        <mxCell id="n29ahL4NUWtV4H1Kzx2c-19" value="" style="group" vertex="1" connectable="0" parent="1">
          <mxGeometry x="110" y="310" width="60" height="60" as="geometry" />
        </mxCell>
        <mxCell id="n29ahL4NUWtV4H1Kzx2c-20" value="" style="shape=cylinder3;whiteSpace=wrap;html=1;boundedLbl=1;backgroundOutline=1;size=15;labelBackgroundColor=none;fillColor=#E5A68C;strokeColor=#B20000;fontColor=#ffffff;" vertex="1" parent="n29ahL4NUWtV4H1Kzx2c-19">
          <mxGeometry x="11.200000000000001" y="16.363636363636363" width="33.6" height="43.63636363636363" as="geometry" />
        </mxCell>
        <mxCell id="n29ahL4NUWtV4H1Kzx2c-21" value="Cache" style="text;html=1;align=center;verticalAlign=middle;resizable=0;points=[];autosize=1;strokeColor=none;fillColor=none;labelBackgroundColor=none;fontColor=#46495D;fontSize=10;" vertex="1" parent="n29ahL4NUWtV4H1Kzx2c-19">
          <mxGeometry x="20" width="50" height="30" as="geometry" />
        </mxCell>
        <mxCell id="n29ahL4NUWtV4H1Kzx2c-26" style="edgeStyle=orthogonalEdgeStyle;rounded=0;orthogonalLoop=1;jettySize=auto;html=1;exitX=1;exitY=0.25;exitDx=0;exitDy=0;entryX=0;entryY=0.5;entryDx=0;entryDy=0;endArrow=open;endFill=0;startArrow=oval;startFill=1;" edge="1" parent="1" source="n29ahL4NUWtV4H1Kzx2c-3" target="8RKPcWR6JXZ6SVr-2ro6-36">
          <mxGeometry relative="1" as="geometry">
            <Array as="points">
              <mxPoint x="390" y="420" />
              <mxPoint x="590" y="420" />
              <mxPoint x="590" y="180" />
            </Array>
          </mxGeometry>
        </mxCell>
        <mxCell id="n29ahL4NUWtV4H1Kzx2c-27" style="edgeStyle=orthogonalEdgeStyle;rounded=0;orthogonalLoop=1;jettySize=auto;html=1;exitX=1;exitY=0.25;exitDx=0;exitDy=0;entryX=0;entryY=0.75;entryDx=0;entryDy=0;endArrow=open;endFill=0;startArrow=oval;startFill=1;" edge="1" parent="1" source="n29ahL4NUWtV4H1Kzx2c-7" target="8RKPcWR6JXZ6SVr-2ro6-36">
          <mxGeometry relative="1" as="geometry">
            <Array as="points">
              <mxPoint x="610" y="505" />
              <mxPoint x="610" y="195" />
            </Array>
          </mxGeometry>
        </mxCell>
        <mxCell id="n29ahL4NUWtV4H1Kzx2c-28" style="edgeStyle=orthogonalEdgeStyle;rounded=0;orthogonalLoop=1;jettySize=auto;html=1;entryX=0.013;entryY=0.77;entryDx=0;entryDy=0;entryPerimeter=0;endArrow=block;endFill=1;startArrow=oval;startFill=1;" edge="1" parent="1" source="n29ahL4NUWtV4H1Kzx2c-17" target="8RKPcWR6JXZ6SVr-2ro6-17">
          <mxGeometry relative="1" as="geometry">
            <mxPoint x="531" y="521" as="sourcePoint" />
            <Array as="points">
              <mxPoint x="600" y="521" />
              <mxPoint x="600" y="521" />
            </Array>
          </mxGeometry>
        </mxCell>
      </root>
    </mxGraphModel>
  </diagram>
</mxfile>
